<mxfile host="app.diagrams.net" modified="2022-07-07T09:09:21.862Z" agent="5.0 (Windows)" etag="Fc4-2yB0PQVwCcUefmHH" version="20.0.4" type="github">
  <diagram name="Page-1" id="c37626ed-c26b-45fb-9056-f9ebc6bb27b6">
    <mxGraphModel dx="1292" dy="680" grid="1" gridSize="10" guides="1" tooltips="1" connect="1" arrows="1" fold="1" page="1" pageScale="1" pageWidth="1100" pageHeight="850" background="none" math="0" shadow="0">
      <root>
        <mxCell id="0" />
        <mxCell id="1" parent="0" />
        <mxCell id="1c7a67bf8fd3230f-61" style="edgeStyle=none;html=1;labelBackgroundColor=none;startFill=0;endArrow=none;endFill=0;strokeWidth=2;fontFamily=Verdana;fontSize=12;exitX=0.55;exitY=0.95;exitDx=0;exitDy=0;exitPerimeter=0;entryX=1;entryY=0;entryDx=0;entryDy=0;entryPerimeter=0;" parent="1" source="fIpslHjeC98yv0ntgD_M-5" target="fIpslHjeC98yv0ntgD_M-1" edge="1">
          <mxGeometry relative="1" as="geometry">
            <mxPoint x="969.9999999999995" y="881.1369863013697" as="targetPoint" />
          </mxGeometry>
        </mxCell>
        <mxCell id="1c7a67bf8fd3230f-62" style="edgeStyle=none;html=1;labelBackgroundColor=none;startFill=0;endArrow=none;endFill=0;strokeWidth=2;fontFamily=Verdana;fontSize=12;entryX=0.08;entryY=0.05;entryDx=0;entryDy=0;entryPerimeter=0;" parent="1" source="1c7a67bf8fd3230f-13" target="fIpslHjeC98yv0ntgD_M-1" edge="1">
          <mxGeometry relative="1" as="geometry">
            <mxPoint x="1258" y="890.0068965517239" as="targetPoint" />
          </mxGeometry>
        </mxCell>
        <mxCell id="fIpslHjeC98yv0ntgD_M-32" style="rounded=0;orthogonalLoop=1;jettySize=auto;html=1;exitX=0.07;exitY=0.4;exitDx=0;exitDy=0;exitPerimeter=0;fontSize=14;endArrow=none;endFill=0;" parent="1" source="1c7a67bf8fd3230f-13" target="fIpslHjeC98yv0ntgD_M-27" edge="1">
          <mxGeometry relative="1" as="geometry" />
        </mxCell>
        <mxCell id="6axadsAs_ZItvVHvqGPq-3" style="rounded=0;orthogonalLoop=1;jettySize=auto;html=1;exitX=0.55;exitY=0.95;exitDx=0;exitDy=0;exitPerimeter=0;entryX=0.54;entryY=0.022;entryDx=0;entryDy=0;entryPerimeter=0;endArrow=none;endFill=0;" edge="1" parent="1" source="1c7a67bf8fd3230f-13" target="6axadsAs_ZItvVHvqGPq-2">
          <mxGeometry relative="1" as="geometry" />
        </mxCell>
        <mxCell id="1c7a67bf8fd3230f-13" value="Lab" style="ellipse;shape=cloud;whiteSpace=wrap;html=1;rounded=0;shadow=0;comic=0;strokeWidth=1;fontFamily=Verdana;fontSize=12;" parent="1" vertex="1">
          <mxGeometry x="490" y="140" width="120" height="80" as="geometry" />
        </mxCell>
        <mxCell id="fIpslHjeC98yv0ntgD_M-4" value="G1/0/4" style="edgeStyle=orthogonalEdgeStyle;rounded=0;orthogonalLoop=1;jettySize=auto;html=1;exitX=0.5;exitY=1;exitDx=0;exitDy=0;exitPerimeter=0;fontSize=14;endArrow=none;endFill=0;fillColor=#d5e8d4;strokeColor=#82b366;" parent="1" source="fIpslHjeC98yv0ntgD_M-1" target="fIpslHjeC98yv0ntgD_M-2" edge="1">
          <mxGeometry x="0.8667" relative="1" as="geometry">
            <mxPoint as="offset" />
          </mxGeometry>
        </mxCell>
        <mxCell id="fIpslHjeC98yv0ntgD_M-1" value="&lt;font style=&quot;font-size: 14px;&quot;&gt;IEM-FL-CORE-01&lt;/font&gt;" style="shape=mxgraph.cisco.switches.layer_3_switch;sketch=0;html=1;pointerEvents=1;dashed=0;fillColor=#036897;strokeColor=#ffffff;strokeWidth=2;verticalLabelPosition=bottom;verticalAlign=top;align=center;outlineConnect=0;" parent="1" vertex="1">
          <mxGeometry x="680" y="310" width="90" height="90" as="geometry" />
        </mxCell>
        <mxCell id="fIpslHjeC98yv0ntgD_M-5" value="Internet" style="ellipse;shape=cloud;whiteSpace=wrap;html=1;rounded=0;shadow=0;comic=0;strokeWidth=1;fontFamily=Verdana;fontSize=12;" parent="1" vertex="1">
          <mxGeometry x="790" y="140" width="120" height="80" as="geometry" />
        </mxCell>
        <mxCell id="fIpslHjeC98yv0ntgD_M-9" value="G1/0/2" style="edgeStyle=orthogonalEdgeStyle;rounded=0;orthogonalLoop=1;jettySize=auto;html=1;exitX=0.5;exitY=0;exitDx=0;exitDy=0;exitPerimeter=0;entryX=0;entryY=0.5;entryDx=0;entryDy=0;entryPerimeter=0;fontSize=14;endArrow=none;endFill=0;startArrow=none;fillColor=#e1d5e7;strokeColor=#9673a6;" parent="1" source="fIpslHjeC98yv0ntgD_M-8" target="fIpslHjeC98yv0ntgD_M-2" edge="1">
          <mxGeometry x="0.726" relative="1" as="geometry">
            <mxPoint as="offset" />
          </mxGeometry>
        </mxCell>
        <mxCell id="fIpslHjeC98yv0ntgD_M-7" value="laptop" style="shape=mxgraph.cisco.computers_and_peripherals.laptop;sketch=0;html=1;pointerEvents=1;dashed=0;fillColor=#036897;strokeColor=#ffffff;strokeWidth=2;verticalLabelPosition=bottom;verticalAlign=top;align=center;outlineConnect=0;fontSize=14;" parent="1" vertex="1">
          <mxGeometry x="459" y="730" width="73.77" height="50" as="geometry" />
        </mxCell>
        <mxCell id="fIpslHjeC98yv0ntgD_M-8" value="IP Phone" style="shape=mxgraph.cisco.modems_and_phones.ip_phone;sketch=0;html=1;pointerEvents=1;dashed=0;fillColor=#036897;strokeColor=#ffffff;strokeWidth=2;verticalLabelPosition=bottom;verticalAlign=top;align=center;outlineConnect=0;fontSize=14;" parent="1" vertex="1">
          <mxGeometry x="460" y="630" width="72" height="40" as="geometry" />
        </mxCell>
        <mxCell id="fIpslHjeC98yv0ntgD_M-10" value="" style="edgeStyle=orthogonalEdgeStyle;rounded=0;orthogonalLoop=1;jettySize=auto;html=1;exitX=0.5;exitY=0;exitDx=0;exitDy=0;exitPerimeter=0;entryX=0.5;entryY=0.975;entryDx=0;entryDy=0;entryPerimeter=0;fontSize=14;endArrow=none;endFill=0;fillColor=#dae8fc;strokeColor=#6c8ebf;" parent="1" source="fIpslHjeC98yv0ntgD_M-7" target="fIpslHjeC98yv0ntgD_M-8" edge="1">
          <mxGeometry relative="1" as="geometry">
            <mxPoint x="496.8850000000002" y="730" as="sourcePoint" />
            <mxPoint x="680" y="595" as="targetPoint" />
            <Array as="points">
              <mxPoint x="496" y="720" />
              <mxPoint x="496" y="720" />
            </Array>
          </mxGeometry>
        </mxCell>
        <mxCell id="fIpslHjeC98yv0ntgD_M-11" value="WLC" style="sketch=0;points=[[0.015,0.015,0],[0.985,0.015,0],[0.985,0.985,0],[0.015,0.985,0],[0.25,0,0],[0.5,0,0],[0.75,0,0],[1,0.25,0],[1,0.5,0],[1,0.75,0],[0.75,1,0],[0.5,1,0],[0.25,1,0],[0,0.75,0],[0,0.5,0],[0,0.25,0]];verticalLabelPosition=bottom;html=1;verticalAlign=top;aspect=fixed;align=center;pointerEvents=1;shape=mxgraph.cisco19.rect;prIcon=wireless_lan_controller;fillColor=#FAFAFA;strokeColor=#005073;fontSize=14;" parent="1" vertex="1">
          <mxGeometry x="870" y="570" width="64" height="50" as="geometry" />
        </mxCell>
        <mxCell id="fIpslHjeC98yv0ntgD_M-12" value="AP2" style="shape=mxgraph.cisco.misc.access_point;html=1;pointerEvents=1;dashed=0;fillColor=#036897;strokeColor=#ffffff;strokeWidth=2;verticalLabelPosition=bottom;verticalAlign=top;align=center;outlineConnect=0;fontSize=14;" parent="1" vertex="1">
          <mxGeometry x="687" y="725" width="75" height="34" as="geometry" />
        </mxCell>
        <mxCell id="fIpslHjeC98yv0ntgD_M-14" value="" style="html=1;verticalLabelPosition=bottom;align=center;labelBackgroundColor=#ffffff;verticalAlign=top;strokeWidth=2;strokeColor=#0080F0;shadow=0;dashed=0;shape=mxgraph.ios7.icons.wifi;pointerEvents=1;fontSize=14;rotation=75;" parent="1" vertex="1">
          <mxGeometry x="550" y="724" width="35.17" height="34.71" as="geometry" />
        </mxCell>
        <mxCell id="fIpslHjeC98yv0ntgD_M-15" value="G1/0/1" style="edgeStyle=orthogonalEdgeStyle;rounded=0;orthogonalLoop=1;jettySize=auto;html=1;exitX=0;exitY=0.5;exitDx=0;exitDy=0;exitPerimeter=0;fontSize=14;endArrow=none;endFill=0;fillColor=#ffe6cc;strokeColor=#d79b00;" parent="1" source="fIpslHjeC98yv0ntgD_M-11" edge="1">
          <mxGeometry x="0.5" relative="1" as="geometry">
            <mxPoint x="824" y="595" as="sourcePoint" />
            <mxPoint x="770" y="595" as="targetPoint" />
            <mxPoint as="offset" />
          </mxGeometry>
        </mxCell>
        <mxCell id="fIpslHjeC98yv0ntgD_M-18" value="G1/0/3" style="edgeStyle=orthogonalEdgeStyle;rounded=0;orthogonalLoop=1;jettySize=auto;html=1;entryX=0.5;entryY=1;entryDx=0;entryDy=0;entryPerimeter=0;fontSize=14;endArrow=none;endFill=0;startArrow=none;fillColor=#ffe6cc;strokeColor=#d79b00;" parent="1" source="fIpslHjeC98yv0ntgD_M-12" target="fIpslHjeC98yv0ntgD_M-2" edge="1">
          <mxGeometry x="0.0065" relative="1" as="geometry">
            <mxPoint x="506" y="640" as="sourcePoint" />
            <mxPoint x="690" y="605" as="targetPoint" />
            <mxPoint as="offset" />
          </mxGeometry>
        </mxCell>
        <mxCell id="fIpslHjeC98yv0ntgD_M-21" value="&lt;div&gt;native: 248&lt;br&gt;&lt;/div&gt;" style="text;whiteSpace=wrap;html=1;fontSize=14;fontStyle=2;fillColor=#ffe6cc;strokeColor=#d79b00;" parent="1" vertex="1">
          <mxGeometry x="762" y="650" width="80" height="30" as="geometry" />
        </mxCell>
        <mxCell id="fIpslHjeC98yv0ntgD_M-22" value="TEST-ISE-DOT1X" style="text;whiteSpace=wrap;html=1;fontSize=14;fontStyle=2" parent="1" vertex="1">
          <mxGeometry x="541" y="759.71" width="120" height="20" as="geometry" />
        </mxCell>
        <mxCell id="fIpslHjeC98yv0ntgD_M-33" style="rounded=0;orthogonalLoop=1;jettySize=auto;html=1;exitX=0.985;exitY=0.015;exitDx=0;exitDy=0;exitPerimeter=0;entryX=0.31;entryY=0.8;entryDx=0;entryDy=0;entryPerimeter=0;fontSize=14;endArrow=none;endFill=0;" parent="1" source="fIpslHjeC98yv0ntgD_M-25" target="1c7a67bf8fd3230f-13" edge="1">
          <mxGeometry relative="1" as="geometry" />
        </mxCell>
        <mxCell id="fIpslHjeC98yv0ntgD_M-25" value="ise1" style="sketch=0;points=[[0.015,0.015,0],[0.985,0.015,0],[0.985,0.985,0],[0.015,0.985,0],[0.25,0,0],[0.5,0,0],[0.75,0,0],[1,0.25,0],[1,0.5,0],[1,0.75,0],[0.75,1,0],[0.5,1,0],[0.25,1,0],[0,0.75,0],[0,0.5,0],[0,0.25,0]];verticalLabelPosition=bottom;html=1;verticalAlign=top;aspect=fixed;align=center;pointerEvents=1;shape=mxgraph.cisco19.rect;prIcon=ise;fillColor=#FAFAFA;strokeColor=#005073;fontSize=14;" parent="1" vertex="1">
          <mxGeometry x="340" y="280" width="50" height="50" as="geometry" />
        </mxCell>
        <mxCell id="fIpslHjeC98yv0ntgD_M-27" value="&lt;div&gt;domain controller &lt;br&gt;&lt;/div&gt;&lt;div&gt;(Windows 2016)&lt;/div&gt;" style="sketch=0;pointerEvents=1;shadow=0;dashed=0;html=1;strokeColor=none;fillColor=#505050;labelPosition=center;verticalLabelPosition=bottom;verticalAlign=top;outlineConnect=0;align=center;shape=mxgraph.office.servers.domain_controller;fontSize=14;" parent="1" vertex="1">
          <mxGeometry x="348" y="145" width="45" height="55" as="geometry" />
        </mxCell>
        <mxCell id="fIpslHjeC98yv0ntgD_M-34" style="rounded=0;orthogonalLoop=1;jettySize=auto;html=1;exitX=0.965;exitY=0.089;exitDx=0;exitDy=0;fontSize=14;endArrow=none;endFill=0;exitPerimeter=0;entryX=0.31;entryY=0.8;entryDx=0;entryDy=0;entryPerimeter=0;" parent="1" source="fIpslHjeC98yv0ntgD_M-30" target="1c7a67bf8fd3230f-13" edge="1">
          <mxGeometry relative="1" as="geometry" />
        </mxCell>
        <mxCell id="fIpslHjeC98yv0ntgD_M-30" value="devbox (Ubuntu 22.04)" style="shape=image;html=1;verticalAlign=top;verticalLabelPosition=bottom;labelBackgroundColor=#ffffff;imageAspect=0;aspect=fixed;image=https://cdn0.iconfinder.com/data/icons/logos-brands/24/logo_brand_brands_logos_ubuntu-128.png;fontSize=14;" parent="1" vertex="1">
          <mxGeometry x="342.5" y="370" width="45" height="45" as="geometry" />
        </mxCell>
        <mxCell id="fIpslHjeC98yv0ntgD_M-35" value="Gig2" style="text;whiteSpace=wrap;html=1;fontSize=14;fontStyle=0" parent="1" vertex="1">
          <mxGeometry x="837" y="570" width="30" height="20" as="geometry" />
        </mxCell>
        <mxCell id="fIpslHjeC98yv0ntgD_M-36" value="Gig0" style="text;whiteSpace=wrap;html=1;fontSize=14;fontStyle=0" parent="1" vertex="1">
          <mxGeometry x="726" y="701" width="30" height="20" as="geometry" />
        </mxCell>
        <mxCell id="fIpslHjeC98yv0ntgD_M-2" value="&lt;font style=&quot;font-size: 14px;&quot;&gt;c3850-lab&lt;/font&gt;" style="shape=mxgraph.cisco.switches.layer_3_switch;sketch=0;html=1;pointerEvents=1;dashed=0;fillColor=#036897;strokeColor=#ffffff;strokeWidth=2;verticalLabelPosition=bottom;verticalAlign=top;align=center;outlineConnect=0;" parent="1" vertex="1">
          <mxGeometry x="680" y="550" width="90" height="90" as="geometry" />
        </mxCell>
        <mxCell id="fIpslHjeC98yv0ntgD_M-37" value="Gig1/0/4" style="text;whiteSpace=wrap;html=1;fontSize=14;fontStyle=0" parent="1" vertex="1">
          <mxGeometry x="726" y="422" width="30" height="20" as="geometry" />
        </mxCell>
        <mxCell id="fIpslHjeC98yv0ntgD_M-39" value="" style="group" parent="1" vertex="1" connectable="0">
          <mxGeometry x="144" y="631" width="250" height="170" as="geometry" />
        </mxCell>
        <mxCell id="fIpslHjeC98yv0ntgD_M-38" value="" style="rounded=1;whiteSpace=wrap;html=1;fontSize=14;fillColor=#99CCFF;" parent="fIpslHjeC98yv0ntgD_M-39" vertex="1">
          <mxGeometry width="220" height="170" as="geometry" />
        </mxCell>
        <mxCell id="fIpslHjeC98yv0ntgD_M-24" value="&lt;div&gt;&lt;font style=&quot;font-size: 14px;&quot;&gt;c3850-lab - &lt;/font&gt;3.45.249.254 (G0/0)&lt;br&gt;&lt;/div&gt;&lt;div&gt;WLC - 3.45.249.11 (Gig2)&lt;/div&gt;&lt;div&gt;laptop - 3.45.249.205&lt;/div&gt;&lt;div&gt;ESXi - 3.45.249.101&lt;/div&gt;&lt;div&gt;devbox - 3.45.249.209&lt;/div&gt;&lt;div&gt;dc - 3.45.249.202&lt;/div&gt;&lt;div&gt;ise1- 3.45.249.208&lt;/div&gt;&lt;div&gt;JumpHost - 3.45.249.203&lt;br&gt;&lt;/div&gt;&lt;div&gt;&lt;br&gt;&lt;/div&gt;" style="text;whiteSpace=wrap;html=1;fontSize=14;" parent="fIpslHjeC98yv0ntgD_M-39" vertex="1">
          <mxGeometry x="10" y="17.733333333333334" width="240" height="45.33333333333333" as="geometry" />
        </mxCell>
        <mxCell id="6axadsAs_ZItvVHvqGPq-4" value="&lt;font color=&quot;#0066CC&quot;&gt;Management connections&lt;/font&gt;" style="text;whiteSpace=wrap;html=1;fontSize=14;fontStyle=2" vertex="1" parent="fIpslHjeC98yv0ntgD_M-39">
          <mxGeometry x="30" y="-2.39" width="190" height="21.25" as="geometry" />
        </mxCell>
        <mxCell id="fIpslHjeC98yv0ntgD_M-42" value="VLAN248: 3.45.248.1" style="rounded=1;whiteSpace=wrap;html=1;fontSize=14;fillColor=#ffe6cc;strokeColor=#d79b00;" parent="1" vertex="1">
          <mxGeometry x="750" y="475" width="130" height="30" as="geometry" />
        </mxCell>
        <mxCell id="fIpslHjeC98yv0ntgD_M-45" value="VLAN249: 3.45.249.212" style="rounded=1;whiteSpace=wrap;html=1;fontSize=14;fillColor=#d5e8d4;strokeColor=#82b366;" parent="1" vertex="1">
          <mxGeometry x="750" y="509" width="130" height="39" as="geometry" />
        </mxCell>
        <mxCell id="fIpslHjeC98yv0ntgD_M-46" value="VLAN4: 198.18.4.1" style="rounded=1;whiteSpace=wrap;html=1;fontSize=14;fillColor=#e1d5e7;strokeColor=#9673a6;" parent="1" vertex="1">
          <mxGeometry x="570" y="483" width="130" height="30" as="geometry" />
        </mxCell>
        <mxCell id="fIpslHjeC98yv0ntgD_M-47" value="VLAN198: 198.100.4.1" style="rounded=1;whiteSpace=wrap;html=1;fontSize=14;fillColor=#dae8fc;strokeColor=#6c8ebf;" parent="1" vertex="1">
          <mxGeometry x="570" y="518" width="130" height="30" as="geometry" />
        </mxCell>
        <mxCell id="fIpslHjeC98yv0ntgD_M-48" value="VLAN3: 198.18.3.1" style="rounded=1;whiteSpace=wrap;html=1;fontSize=14;fillColor=#f8cecc;strokeColor=#b85450;" parent="1" vertex="1">
          <mxGeometry x="570" y="448" width="130" height="30" as="geometry" />
        </mxCell>
        <mxCell id="fIpslHjeC98yv0ntgD_M-50" value="wi-fi data: 3" style="text;whiteSpace=wrap;html=1;fontSize=14;fontStyle=2;fillColor=#f8cecc;strokeColor=#b85450;" parent="1" vertex="1">
          <mxGeometry x="762" y="683" width="80" height="30" as="geometry" />
        </mxCell>
        <mxCell id="fIpslHjeC98yv0ntgD_M-53" value="&lt;div&gt;data: 4&lt;br&gt;&lt;/div&gt;" style="text;whiteSpace=wrap;html=1;fontSize=14;fontStyle=2;fillColor=#e1d5e7;strokeColor=#9673a6;" parent="1" vertex="1">
          <mxGeometry x="540.77" y="570" width="69.23" height="22" as="geometry" />
        </mxCell>
        <mxCell id="fIpslHjeC98yv0ntgD_M-54" value="voice: 198" style="text;whiteSpace=wrap;html=1;fontSize=14;fontStyle=2;fillColor=#dae8fc;strokeColor=#6c8ebf;" parent="1" vertex="1">
          <mxGeometry x="540.77" y="597.5" width="69.23" height="23.5" as="geometry" />
        </mxCell>
        <mxCell id="fIpslHjeC98yv0ntgD_M-55" value="&lt;div&gt;EXT: 249&lt;br&gt;&lt;/div&gt;" style="text;whiteSpace=wrap;html=1;fontSize=14;fontStyle=2;fillColor=#d5e8d4;strokeColor=#82b366;" parent="1" vertex="1">
          <mxGeometry x="730" y="448" width="60" height="22" as="geometry" />
        </mxCell>
        <mxCell id="6axadsAs_ZItvVHvqGPq-2" value="JumpHost" style="sketch=0;aspect=fixed;html=1;points=[];align=center;image;fontSize=12;image=img/lib/mscae/VM_Windows_Non_Azure.svg;" vertex="1" parent="1">
          <mxGeometry x="430" y="442" width="50" height="46" as="geometry" />
        </mxCell>
      </root>
    </mxGraphModel>
  </diagram>
</mxfile>
